# xmcd
#
# Track frame offsets:
#  150
#  17082
#  35438
#  53246
#  74403
#  95704
#  121675
#  147544
#  168704
#  189884
#  208623
#  230255
#  249690
#  251732
#  278296
#
# Disc length: 3766 seconds
#
# Revision: 0
# Processed by: cddbd v1.5.1PL0 Copyright (c) Steve Scherf et al.
# Submitted via: AltoMP3_Maker 3.0
#
DISCID=d50eb40f
DTITLE=Popa Chubby - Booty And The Beast
DYEAR=1900
DGENRE=
TTITLE0=Palace Of The King
TTITLE1=Lookin' Back
TTITLE2=Healing In Her Hands
TTITLE3=Sweet Goddess
TTITLE4=Stoop Down Baby
TTITLE5=Trouble
TTITLE6=Same Old Blues
TTITLE7=Anything You Want Me To Do
TTITLE8=Low Down And Dirty
TTITLE9=Waitin' For The Light
TTITLE10=Angel On My Shoulder
TTITLE11=You Rub Me The Wrong Way
TTITLE12=Secret Chubby
TTITLE13=Sweat
TTITLE14=Chubby's Goodnight
EXTD=
EXTT0=
EXTT1=
EXTT2=
EXTT3=
EXTT4=
EXTT5=
EXTT6=
EXTT7=
EXTT8=
EXTT9=
EXTT10=
EXTT11=
EXTT12=
EXTT13=
EXTT14=
PLAYORDER=
